<svg xmlns="http://www.w3.org/2000/svg" width="640" height="420" viewBox="0 0 640 420" role="img" aria-labelledby="title desc">
  <title id="title">Clear aligner planning illustration</title>
  <desc id="desc">Transparent aligner trays and progress cards on a polished clinic background.</desc>
  <rect width="640" height="420" rx="34" fill="#eef9f7"/>
  <circle cx="514" cy="112" r="128" fill="#a9d9d3" opacity=".46"/>
  <rect x="92" y="96" width="184" height="228" rx="30" fill="#ffffff"/>
  <rect x="316" y="96" width="184" height="228" rx="30" fill="#ffffff" opacity=".84"/>
  <path d="M132 228c22 38 58 58 108 58s86-20 108-58" fill="none" stroke="#2f7d78" stroke-width="18" stroke-linecap="round"/>
  <path d="M356 228c22 38 58 58 108 58s86-20 108-58" fill="none" stroke="#17324a" stroke-width="18" stroke-linecap="round" opacity=".55"/>
  <path d="M132 178c22-38 58-58 108-58s86 20 108 58M356 178c22-38 58-58 108-58s86 20 108 58" fill="none" stroke="#9ad5cd" stroke-width="16" stroke-linecap="round"/>
  <path d="M274 210h68" stroke="#2f7d78" stroke-width="14" stroke-linecap="round"/>
  <path d="M294 190l32 20-32 20" fill="none" stroke="#2f7d78" stroke-width="14" stroke-linecap="round" stroke-linejoin="round"/>
</svg>
