<svg xmlns="http://www.w3.org/2000/svg" width="1200" height="900" viewBox="0 0 1200 900" role="img" aria-labelledby="title desc">
  <title id="title">Calm modern dental studio illustration</title>
  <desc id="desc">A bright dental room with soft green walls, rounded furniture, plants, and warm natural light.</desc>
  <defs>
    <linearGradient id="wall" x1="0" x2="1" y1="0" y2="1">
      <stop offset="0" stop-color="#e8f7f4"/>
      <stop offset="1" stop-color="#cfeae6"/>
    </linearGradient>
    <linearGradient id="floor" x1="0" x2="1" y1="0" y2="0">
      <stop offset="0" stop-color="#f7fbf8"/>
      <stop offset="1" stop-color="#d8ece7"/>
    </linearGradient>
    <linearGradient id="chair" x1="0" x2="1" y1="0" y2="1">
      <stop offset="0" stop-color="#ffffff"/>
      <stop offset="1" stop-color="#b9d9d5"/>
    </linearGradient>
    <filter id="shadow" x="-20%" y="-20%" width="140%" height="140%">
      <feDropShadow dx="0" dy="24" stdDeviation="24" flood-color="#17324a" flood-opacity=".18"/>
    </filter>
  </defs>
  <rect width="1200" height="900" fill="url(#wall)"/>
  <circle cx="1020" cy="150" r="230" fill="#a9d9d3" opacity=".42"/>
  <circle cx="160" cy="180" r="160" fill="#ffffff" opacity=".52"/>
  <path d="M0 650c190-72 338-68 526 0s356 72 674-18v268H0z" fill="url(#floor)"/>
  <g filter="url(#shadow)">
    <rect x="104" y="104" width="400" height="300" rx="38" fill="#ffffff" opacity=".86"/>
    <rect x="134" y="134" width="150" height="240" rx="24" fill="#d7efed"/>
    <rect x="306" y="134" width="168" height="240" rx="24" fill="#eaf8f5"/>
    <path d="M160 330c48-58 92-56 132 0M334 330c46-70 88-70 126 0" fill="none" stroke="#2f7d78" stroke-width="14" stroke-linecap="round"/>
  </g>
  <g filter="url(#shadow)">
    <path d="M414 642c24-98 94-152 208-164l206-22c66-7 126 42 133 108s-40 126-106 135l-314 42c-78 10-145-22-127-99z" fill="url(#chair)"/>
    <path d="M566 520l312-36c36-4 69 22 73 58s-22 69-58 74l-312 39c-42 5-80-25-85-67s28-63 70-68z" fill="#f8fffd"/>
    <path d="M460 724h414" stroke="#17324a" stroke-width="18" stroke-linecap="round" opacity=".22"/>
    <path d="M548 726l-44 86M812 710l58 102" stroke="#17324a" stroke-width="18" stroke-linecap="round" opacity=".24"/>
  </g>
  <g filter="url(#shadow)">
    <rect x="812" y="144" width="238" height="310" rx="34" fill="#ffffff" opacity=".9"/>
    <rect x="840" y="174" width="182" height="122" rx="22" fill="#d7efed"/>
    <path d="M872 378h116M872 344h86" stroke="#2f7d78" stroke-width="18" stroke-linecap="round"/>
  </g>
  <g opacity=".95">
    <path d="M198 635c-52-62-18-158 74-160 84 12 100 124 24 174z" fill="#2f7d78"/>
    <path d="M184 790c16-96 50-144 104-144s88 48 104 144z" fill="#17324a"/>
    <circle cx="292" cy="514" r="54" fill="#f1b88b"/>
    <path d="M244 514c22-46 76-66 118-30-8-64-126-78-144-10-6 20 2 34 26 40z" fill="#17324a"/>
  </g>
</svg>
